FFmpeg version SVN-r25716, Copyright (c) 2000-2010 the FFmpeg developers  built on Nov 10 2010 12:23:18 with gcc 4.1.2 20080704 (Red Hat 4.1.2-48)  configuration: --enable-libmp3lame --enable-shared --disable-mmx --arch=x86_64  libavutil     50.33. 0 / 50.33. 0  libavcore      0.12. 1 /  0.12. 1  libavcodec    52.94. 4 / 52.94. 4  libavformat   52.84. 0 / 52.84. 0  libavdevice   52. 2. 2 / 52. 2. 2  libavfilter    1.59. 0 /  1.59. 0  libswscale     0.12. 0 /  0.12. 0Input #0, avi, from '/RAID10/data/converted_video_files/9690.avi':  Duration: 00:02:00.68, start: 0.000000, bitrate: 1734 kb/s    Stream #0.0: Video: indeo5, yuv410p, 320x240, 25 fps, 25 tbr, 25 tbn, 25 tbc    Stream #0.1: Audio: pcm_s16le, 44100 Hz, 2 channels, s16, 1411 kb/s[buffer @ 0x99e52a0] w:320 h:240 pixfmt:yuv410p[ffsink @ 0x99e5510] auto-inserting filter 'auto-inserted scaler 0' between the filter 'src' and the filter 'out'[scale @ 0x99e5830] w:320 h:240 fmt:yuv410p -> w:320 h:240 fmt:yuv420p flags:0x4Output #0, flv, to '/RAID10/data/converted_video_files/9690.flv':  Metadata:    encoder         : Lavf52.84.0    Stream #0.0: Video: flv, yuv420p, 320x240, q=2-31, 600 kb/s, 1k tbn, 24 tbc    Stream #0.1: Audio: libmp3lame, 22050 Hz, 2 channels, s16, 96 kb/sStream mapping:  Stream #0.0 -> #0.0  Stream #0.1 -> #0.1Press [q] to stop encodingframe=  120 fps=  0 q=2.0 size=     280kB time=4.28 bitrate= 534.5kbits/s dup=0 drop=5    frame=  249 fps=248 q=2.0 size=     544kB time=9.93 bitrate= 448.8kbits/s dup=0 drop=10    frame=  380 fps=252 q=2.0 size=     785kB time=14.94 bitrate= 430.6kbits/s dup=0 drop=16    frame=  507 fps=252 q=2.0 size=    1086kB time=20.92 bitrate= 425.2kbits/s dup=0 drop=21    frame=  639 fps=254 q=2.0 size=    1336kB time=25.94 bitrate= 422.0kbits/s dup=0 drop=26    frame=  768 fps=255 q=2.0 size=    1627kB time=31.84 bitrate= 418.5kbits/s dup=0 drop=32    frame=  903 fps=257 q=2.0 size=    1873kB time=36.94 bitrate= 415.4kbits/s dup=0 drop=37    frame= 1032 fps=257 q=2.0 size=    2151kB time=42.58 bitrate= 413.8kbits/s dup=0 drop=43    frame= 1163 fps=258 q=2.0 size=    2403kB time=47.94 bitrate= 410.7kbits/s dup=0 drop=48    frame= 1296 fps=258 q=2.0 size=    2646kB time=53.00 bitrate= 408.9kbits/s dup=0 drop=54    frame= 1424 fps=258 q=2.0 size=    2927kB time=58.93 bitrate= 406.9kbits/s dup=0 drop=59    frame= 1556 fps=258 q=2.0 size=    3166kB time=63.92 bitrate= 405.8kbits/s dup=0 drop=65    frame= 1682 fps=258 q=2.0 size=    3451kB time=69.93 bitrate= 404.3kbits/s dup=0 drop=70    frame= 1815 fps=258 q=2.0 size=    3692kB time=74.95 bitrate= 403.5kbits/s dup=0 drop=75    frame= 1944 fps=258 q=2.0 size=    3954kB time=80.48 bitrate= 402.5kbits/s dup=0 drop=81    frame= 2073 fps=258 q=2.0 size=    4221kB time=85.94 bitrate= 402.3kbits/s dup=0 drop=86    frame= 2205 fps=259 q=2.0 size=    4467kB time=90.93 bitrate= 402.4kbits/s dup=0 drop=92    frame= 2336 fps=259 q=2.0 size=    4764kB time=96.94 bitrate= 402.5kbits/s dup=0 drop=97    frame= 2462 fps=258 q=2.0 size=    5014kB time=101.93 bitrate= 403.0kbits/s dup=0 drop=102    frame= 2587 fps=258 q=2.0 size=    5262kB time=106.95 bitrate= 403.1kbits/s dup=0 drop=108    frame= 2712 fps=257 q=2.0 size=    5554kB time=112.80 bitrate= 403.3kbits/s dup=0 drop=113    frame= 2841 fps=257 q=2.0 size=    5805kB time=117.94 bitrate= 403.2kbits/s dup=0 drop=118    frame= 2896 fps=257 q=2.0 Lsize=    5940kB time=120.67 bitrate= 403.2kbits/s dup=0 drop=121    video:4407kB audio:1415kB global headers:0kB muxing overhead 2.023048%